<?xml version="1.0" encoding="utf-8"?>
<!-- Generator: Adobe Illustrator 24.3.0, SVG Export Plug-In . SVG Version: 6.00 Build 0)  -->
<svg version="1.1" id="Layer_1" xmlns="http://www.w3.org/2000/svg" xmlns:xlink="http://www.w3.org/1999/xlink" x="0px" y="0px"
	 viewBox="0 0 395.4 80.2" style="enable-background:new 0 0 395.4 80.2;" xml:space="preserve">
<g>
	<path d="M40.1,80.2C18,80.2,0,62.2,0,40.1C0,18,18,0,40.1,0c2.3,0,4.5,0.2,6.7,0.6c9.1,1.7,17.5,6.7,23.8,14.2
		c6.2,7.4,9.6,16.4,9.6,25.2C80.2,62.2,62.2,80.2,40.1,80.2z M40.1,5.2C20.8,5.2,5.2,20.8,5.2,40.1C5.2,59.3,20.8,75,40.1,75
		S75,59.3,75,40.1c0-16-13.1-31.4-29.1-34.4C44,5.4,42,5.2,40.1,5.2z"/>
	<g id="_x31_77vpC.tif_10_">
		<g>
			<path d="M48.7,18.4c6.1,11.5,12,22.9,18.1,34.4c-0.6,0-1.2,0-1.7,0c-1.6,0-3.2,0-4.9,0c-0.6,0-0.9-0.2-1.2-0.7
				c-3.3-6.2-6.7-12.4-10-18.5c-0.1-0.2-0.2-0.4-0.4-0.6c-0.2,0.2-0.3,0.4-0.4,0.6c-1.2,2.1-2.4,4.1-3.6,6.2c-0.3,0.5-0.3,0.9,0,1.4
				c2,3.6,4,7.2,6.1,10.8c0.1,0.3,0.3,0.5,0.5,0.9c-12.4,0-24.6,0-37,0c6.2-11.5,12.4-22.9,18.6-34.4c2.8,5,5.4,9.8,8.2,14.7
				C43.5,28.1,46,23.4,48.7,18.4z M25,46.5c5.2,0,10.2,0,15.3,0c-2.6-4.7-5-9.3-7.6-13.9C30.1,37.3,27.5,41.9,25,46.5z"/>
		</g>
	</g>
</g>
<g>
	<polygon points="122.6,51.9 122.6,35.6 116.2,47.7 113.6,47.7 107.3,35.6 107.3,51.9 102.5,51.9 102.5,27.2 107.6,27.2 114.9,41.3 
		122.3,27.2 127.4,27.2 127.4,51.9 	"/>
	<path d="M150.6,51.9l9.7-24.7h3.9l9.7,24.7h-5.1l-2.3-6.2H158l-2.3,6.2H150.6z M162.3,32.4l-3.5,10h7L162.3,32.4z"/>
	<path d="M213.8,49.1c-1.9,2-4.1,3-6.6,3c-6.3,0-11.4-6.1-11.4-12.7c0-6.8,5-12.4,11.7-12.4c4.5,0,7.8,2.1,9.4,5.4l-3.6,2.6
		c-1.2-2.4-3.4-3.8-6-3.8c-4,0-6.7,3.8-6.7,8.3c0,4.7,3,8.3,7,8.3c2.3,0,4.3-1.1,6.2-3.4v-1.7h-5v-3.5h8.9v12.7h-4V49.1z"/>
	<polygon points="247.2,36.1 247.2,51.9 242.4,51.9 242.4,27.2 246.2,27.2 259,43.4 259,27.2 263.8,27.2 263.8,51.9 259.9,51.9 	"/>
	<polygon points="306.7,47.7 306.7,51.9 289.6,51.9 289.6,27.2 306.4,27.2 306.4,31.4 294.4,31.4 294.4,37.4 304.8,37.4 304.8,41.3 
		294.4,41.3 294.4,47.7 	"/>
	<polygon points="349.6,31.4 341.8,31.4 341.8,51.9 337,51.9 337,31.4 329.1,31.4 329.1,27.2 349.6,27.2 	"/>
	<path d="M371.9,39.6c0-6.6,5-12.5,11.8-12.5c7,0,11.7,6.4,11.7,12.6c0,6.5-4.9,12.5-11.8,12.5C376.6,52.1,371.9,45.9,371.9,39.6
		 M383.7,47.8c4.4,0,6.9-4.2,6.9-8.3c0-4.3-2.6-8.2-6.9-8.2c-4.4,0-6.9,4.2-6.9,8.2C376.7,43.8,379.3,47.8,383.7,47.8"/>
</g>
</svg>
